<svg width="250px" height="250px" version="1.1" viewBox="0 0 700 700">
 <g>
  <path d="m352.8 283.36c1.1211-0.55859-5.0391-5.6016-5.6016-7.2812-0.55859 2.8008 7.2812 8.9609 5.6016 7.2812z"/>
  <path d="m348.32 276.08 3.3594 7.8438-1.6797-5.043z"/>
  <path d="m344.4 285.04c11.199 8.3984 3.3594-6.7188 8.9609-5.0391l2.8008 1.6797-6.7188-8.9609c-2.2422 3.9219-0.5625 12.883-5.043 12.32z"/>
  <path d="m350 277.76c0 0.55859-0.55859 0.55859-1.6797 1.1211 4.4805 3.3594 1.6797 5.0391 2.8008-0.55859 0-0.003907-0.5625-0.003907-1.1211-0.5625z"/>
  <path d="m350.56 280.56c1.1211-1.6797-3.918-2.2383 0 0z"/>
  <path d="m346.08 276.08c0 3.9219 2.8008 5.6016 7.2812 8.3984l-1.6797-5.0391c-2.2383-2.2383-4.4805-1.1172-5.6016-3.3594z"/>
  <path d="m350.56 281.68-0.55859-2.8008c-1.1211-0.55859-1.6797-0.55859 0.55859 2.8008z"/>
  <path d="m348.32 276.64 1.1211 5.0391c1.6797 1.1211 5.0391 4.4805 0-2.2383 2.2383 3.3594 0 0-1.1211-2.8008z"/>
  <path d="m346.08 277.76c3.3594 1.1211 6.1602 1.1211 7.2812 6.1602 2.2422-4.4805-5.0391-11.203-7.2812-6.1602z"/>
  <path d="m348.32 280.56 4.4805 1.6797-2.2383-4.4805c1.1172 2.2422-5.6016 0.003907-2.2422 2.8008z"/>
  <path d="m345.52 276.08c2.2383 2.2383 6.1602 5.0391 8.9609 7.2812l-1.1211-3.3594c-2.2383-0.55859-4.4805-0.55859-7.8398-3.9219z"/>
  <path d="m348.88 277.2 1.6797 5.6016c1.6797-1.1211 0.5625-3.3594-1.6797-5.6016z"/>
  <path d="m351.68 285.6 0.55859-0.5625-4.4766-10.641z"/>
  <path d="m351.12 281.12-3.9219-5.6016 5.6016 8.9609z"/>
  <path d="m344.96 274.4c-0.55859 2.2383 1.6797 6.7188 3.9219 11.199-0.55859-2.8008 1.1211-3.9219 6.1602-2.2383-3.3633-4.4805-8.4023-5.5977-10.082-8.9609z"/>
  <path d="m348.88 276.64c0.55859 1.6797 1.1211 3.3594 2.8008 6.1602-0.55859-1.1211-1.6797-3.3594-2.8008-6.1602z"/>
  <path d="m352.8 282.8 1.1211-0.55859c-1.6797-1.1211-5.0391-3.9219-7.8398-4.4805z"/>
  <path d="m351.12 279.44c-1.1211 0.55859-2.2383 1.1211-2.2383 1.1211-0.003906-0.003906 1.1172-0.5625 2.2383-1.1211z"/>
  <path d="m350 279.44c0.55859 1.1172 0.55859 1.1172 0 0z"/>
  <path d="m344.4 273.28c2.2383 4.4805 3.3594 10.641 10.641 13.441-2.8008-5.043-7.2773-6.7227-10.641-13.441z"/>
  <path d="m347.2 276.64 1.6797 6.7188 3.3594-0.55859c-1.1172-1.6797-3.918-3.9219-5.0391-6.1602z"/>
  <path d="m351.12 281.68-1.1211-3.3594-1.1211 0.55859z"/>
  <path d="m347.2 277.2c1.6797 3.3594 1.1211 5.0391 0 6.1602 2.2383 0 4.4805-0.55859 5.6016-2.2383-1.6797-1.6797-4.4805-5.6016-5.6016-3.9219z"/>
  <path d="m349.44 279.44c1.1172 1.1172 1.1172 1.1172 0 0z"/>
  <path d="m350.56 280.56-1.1211-1.1211 1.1211 1.1211z"/>
  <path d="m350 281.68c2.2383 0 1.1211-1.6797 0-3.9219 0 1.1211-0.55859 2.2383-1.1211 3.3594 0.5625 1.1211 1.1211 1.6836 1.1211 0.5625z"/>
  <path d="m347.76 279.44c1.6797 0.55859 3.3594 1.1211 5.0391 1.6797-2.8008-1.1211-6.7227-3.3594-5.0391-1.6797z"/>
  <path d="m350.56 280.56c-1.6797-1.6797-1.1172-1.1172 0 0z"/>
  <path d="m348.88 277.76c0.55859 1.1211 1.6797 3.3594 2.2383 5.0391 0-1.1211 0-2.2383-0.55859-3.3594s-1.1172-1.1211-1.6797-1.6797z"/>
  <path d="m353.92 278.32c0 5.6016-4.4805 0.55859-8.3984-1.1211 7.8398 5.6016 6.7188 13.441 17.359 22.961l-1.6836-5.6016c1.6797 1.6797 3.3594 5.0391 5.6016 5.6016-5.6016-5.6016-7.8398-13.441 0-9.5195-2.2383-6.1602-21.84-22.961-33.602-31.359 2.2383 2.2383 4.4805 4.4805 5.6016 10.078 3.918 2.2422 11.758 2.2422 15.121 8.9609z"/>
  <path d="m349.44 284.48 5.0391-3.3594 0.55859 1.1211v-1.6797c-2.2383 0-5.0391-1.6797-10.641-4.4805 1.6797 3.918 3.3633 6.1562 5.043 8.3984z"/>
  <path d="m341.6 269.92c1.1211 0.55859 1.6797 1.1211 1.1211 0.55859 0.55859 1.1211 1.6797 1.6797 2.2383 2.2383-2.2383 0-1.6797-1.1211-2.2383-2.2383l-1.1211-0.55859-1.1211 7.2812c1.6797 0 2.8008-1.1211 3.9219-3.9219 5.6016 6.7188 5.6016 11.199 13.441 16.238 2.2383-2.8008-3.3594-6.7188-4.4805-11.199-2.8008 5.6016-2.2383-4.4805-8.3984-5.0391 0-1.6797 0-2.8008 0.55859-3.9219-0.5625 1.1211-2.2422 1.1211-3.9219 0.5625z"/>
  <path d="m350.56 280.56c-0.55859-0.55859-1.1172-0.55859-1.1172-1.1172 0 1.1172 0.55859 1.6797 1.1172 1.1172z"/>
  <path d="m353.36 278.88 0.55859 1.1211c-3.9219-0.55859-13.441-5.6016-14-6.7188 6.1602 5.0391 10.078 8.3984 16.801 12.32-0.55859-1.1211-2.8008-3.9219-1.1211-3.9219 2.8008 1.1211 2.8008 2.8008 5.0391 5.0391-1.6758-2.2383-2.7969-6.7188-7.2773-7.8398z"/>
  <path d="m346.64 281.68 6.7188 3.3594-3.3594-3.3594c3.3594-0.55859-1.1211-3.9219-3.3594-6.7188z"/>
  <path d="m353.36 285.6-1.1211-4.4805-5.5977-6.7227z"/>
  <path d="m349.44 281.68 3.3594 1.1211-5.6016-5.6016z"/>
  <path d="m351.12 281.68-2.8008-2.8008 2.8008 2.8008z"/>
  <path d="m356.16 282.24c-6.7188-3.3594-16.238-10.078-10.078-3.9219l6.7188 5.6016c0-2.2383 1.1211-2.2383 3.3594-1.6797z"/>
  <path d="m350 282.24c0.55859 0.55859 1.6797 1.1211 2.2383 1.1211-1.6797-2.2383-3.3594-4.4805-5.0391-6.7188 1.1211 1.6797 2.2422 3.3594 2.8008 5.5977z"/>
  <path d="m352.8 278.88c-3.9219-1.1211-5.6016-1.1211-6.7188-0.55859 4.4766 2.2383 11.199 6.1602 6.7188 0.55859z"/>
  <path d="m351.68 282.24c-0.55859-1.6797-1.1211-3.3594-2.8008-4.4805 0 1.6836 1.1211 3.3633 2.8008 4.4805z"/>
  <path d="m348.88 281.68c0.55859 0.55859 1.1211 0.55859 2.2383 0.55859 0-1.6797 0-3.9219 1.6797-4.4805-3.918-1.1172-6.7188-1.1172-3.918 3.9219z"/>
  <path d="m350 280.56c0-0.55859 0-0.55859 0.55859-1.1211-1.1172 1.1211-1.1172 1.1211-0.55859 1.1211z"/>
  <path d="m348.88 279.44c0.55859 0 1.6797 0.55859 2.2383 1.1211 0.003906-0.5625-0.55859-1.1211-2.2383-1.1211z"/>
  <path d="m351.12 281.68c-1.1211-1.6797-2.2383-2.8008-2.8008-3.3594 1.1211 1.1211 1.6797 1.6797 2.8008 3.3594z"/>
  <path d="m349.44 279.44c1.6797 1.1172 1.1172 1.1172 0 0z"/>
  <path d="m349.44 280.56h1.6797c-1.1211-1.1172-2.2422-1.6797-1.6797 0z"/>
  <path d="m351.12 280c-0.55859 0-1.1211-0.55859-1.1211-0.55859 0 0.55859-0.55859 1.1211-1.1211 1.6797 0.5625-1.1211 1.1211-1.1211 2.2422-1.1211z"/>
  <path d="m351.12 280v-1.1211c-3.3594 2.2422-2.2422 2.2422 0 1.1211z"/>
  <path d="m360.08 292.32c-6.1602-8.9609-4.4805-8.9609-1.6797-8.3984l-18.48-16.238z"/>
  <path d="m101.92 301.84c6.1602-5.0391 8.9609-5.6016 8.9609-0.55859l-1.6797 1.1211c8.3984 4.4805 6.1602 13.441 11.199 24.078l5.6016-7.8398c1.1211 2.2383-0.55859 5.0391-1.1211 7.2812 11.199-8.9609-4.4805-4.4805 7.2812-15.121-10.078 16.238 12.32 10.641-0.55859 28.559 2.8008 2.2383 6.1602-8.9609 8.9609-6.7188l-2.8008 5.0391 5.6016-5.0391c1.1211 2.2383-2.8008 8.9609-6.1602 12.32 0-0.55859-2.2383 0-2.8008 0-2.2383 7.2812 7.8398 3.3594 7.2812 6.1602v-5.0391c10.641 1.6797 14.559 15.121 29.68 12.32l2.2383-3.9219c10.641-1.6797 1.1211 7.2812 9.5195 9.5195l-1.125 1.1211c3.9219-2.2383 7.2812-2.8008 8.3984-1.1211-5.0391 2.8008-3.9219 10.078-9.5195 12.879 11.199-1.6797 7.2812-2.8008 21.84-12.32l-3.918 6.7227c5.6016-3.9219 7.8398-6.7188 12.32-5.6016-6.7188 2.8008-5.0391 10.078-13.441 14-3.9219 17.359 19.602-4.4805 7.2812 15.68 15.68-12.879 1.6797-12.879 6.1602-15.121 2.8008-6.1602 12.32-9.5195 12.879-6.1602 1.6797 2.2383-13.441 22.398-7.8398 26.32-0.55859-0.55859-1.6797 0.55859-1.6797 0-1.6797 5.6016 8.3984-2.2383 5.0391 6.1602 9.5195-7.8398 3.9219 4.4805 14-7.8398 0 0-8.3984-2.2383-7.8398-2.2383 2.2383-0.55859 7.8398-3.3594 12.32-5.0391 4.4805-1.6797 7.2812-2.2383 7.2812 3.9219-2.2383 2.2383-6.1602 4.4805-8.3984 5.6016-1.1211 5.0391 5.0391 0 3.9219 5.6016-8.9609 12.879-9.5195-3.3594-20.719 2.2383-1.6797 7.2812 14.559-2.2383 2.8008 9.5195 7.8398-7.2812 8.9609-5.6016 10.641-2.2383 1.1211 2.8008 2.8008 6.7188 9.5195 1.6797l-5.0391 8.3984c1.6797-0.55859 5.0391-3.3594 6.7188-1.6797 0 0-2.2383 2.2383-3.9219 4.4805-2.2383 2.2383-4.4805 4.4805-4.4805 4.4805 8.9609-6.1602 5.0391 16.238 11.762 14.559-9.5195-7.2812 2.2383-12.879 1.1211-22.398 14-3.9219-1.6797 26.879 10.641 34.719-1.6797-2.8008-3.3594-11.199 0-12.879 1.6797 3.9219 3.9219 10.641 4.4805 17.359 8.9609 5.0391 1.1211-11.762 5.6016-15.121 0.55859 15.121 5.0391-2.2383 8.3984-3.9219l-1.6797 11.199c8.3984 15.121 4.4805-21.84 11.199-6.7188 0 0-1.1211 3.3594-2.2383 6.7188-1.1211 3.3594-2.2383 6.7188-2.2383 6.7188l4.4805-0.55859-1.6797 12.879c5.0391-6.1602 6.1602-2.2383 11.199 5.6016-1.1211-9.5195 0-22.398 3.9219-19.602v1.1211c2.2383 5.0391-0.55859 12.32 3.9219 6.1602-0.55859 7.2812-1.1211 16.238-2.8008 14-0.55859-1.1211-1.1211-2.8008-1.6797-5.6016 0 3.9219-1.1211 6.7188-1.1211 10.641 1.1211 3.3594 2.2383 5.0391 3.3594 6.7188 2.8008-1.1211 5.0391-7.2812 6.7188-8.9609-0.55859 0.55859-1.6797 0.55859-2.2383-0.55859 0 0 1.6797-6.1602 3.3594-12.32 1.1211-6.1602 2.8008-12.32 2.8008-12.32 1.6797 3.3594 1.1211 7.8398 0.55859 12.32 1.6797-2.8008 1.6797-9.5195 3.9219-12.879 1.1211 10.078 2.8008 19.602-0.55859 28l6.1602-18.48c1.1211 3.3594 6.1602 6.7188 5.6016 11.199 6.1602 0 6.7188-28 14-26.879 0-1.6797 0-3.9219 0.55859-6.1602 5.6016-3.3594 15.121 0.55859 16.238-15.68 0 0 2.8008 2.2383 5.6016 4.4805 2.8008 2.2383 5.6016 3.9219 5.6016 3.9219 3.3594-7.8398-14-10.641-8.9609-22.961 2.8008-8.9609 8.9609 7.8398 13.441 8.9609-1.1211-8.9609-6.1602-24.078 6.7188-20.719 0 3.3594-2.8008 3.3594-3.3594 5.6016 0 0 2.2383 0.55859 4.4805 0.55859 2.2383 0.55859 4.4805 0.55859 4.4805 0.55859 3.3594 14.559-3.9219 15.68 7.8398 19.039-4.4805-5.0391-5.6016-8.9609-5.0391-12.32 0-2.8008 2.8008-6.1602 3.3594-6.7188 1.6797-2.8008 3.9219-5.6016-5.6016-15.121l5.6016 2.2383c-0.55859 0 0.55859 1.6797 0 1.6797 12.32 6.1602-11.199-15.68-5.0391-17.359 2.8008 0 6.7188 1.6797 7.8398 5.0391l-1.6797-7.8398c1.1211-0.55859 4.4805 2.8008 3.3594 3.3594l3.3594-6.1602 0.55859 0.55859c-2.2383-3.3594-5.6016-9.5195-6.7188-12.32 3.9219 1.6797 1.6797 2.8008 3.9219 4.4805l-2.2383-7.2812c6.1602 3.9219 8.3984 10.641 6.1602 11.762 21.281 16.238-2.8008-6.7188 13.441-1.1211v5.0391c12.32 8.9609 10.641 3.3594 20.16 7.2812-3.9219-2.8008-22.398-11.199-24.641-18.48 2.2383 0.55859 3.9219 0 1.6797-5.0391 6.7188 6.7188 6.7188 3.3594 7.8398 1.1211l8.9609 8.9609c-0.55859-4.4805-5.0391-8.9609-8.3984-14 3.3594-1.1211 10.641 5.0391 16.801 10.078 5.0391-2.2383-13.441-8.3984-11.199-14.559 6.1602 0.55859 5.0391-5.6016 2.8008-14.559 5.0391 1.1211 5.0391 5.6016 8.3984 7.8398l-5.625-8.9609c0.55859-0.55859 2.8008 2.2383 3.9219 3.3594-1.1211-4.4805-8.9609-8.9609-8.9609-14-8.9609-10.641 19.602 8.9609 11.199-5.0391 3.3594 1.6797 5.0391 5.6016 8.9609 8.9609-3.3594-11.762-1.6797-8.9609-8.3984-22.398l8.9609 2.8008c-8.9609-4.4805-14-15.121-18.48-24.078-3.9219-2.2383-7.2812-4.4805-9.5195-5.6016l-1.1211-8.3984c1.6797 1.1211 4.4805 4.4805 7.8398 8.9609-0.55859-1.1211-1.1211-1.6797-1.6797-2.8008 4.4805 1.6797 8.9609 7.8398 13.441 13.441-2.2383-1.1211-4.4805-2.8008-6.7188-3.9219 4.4805 6.1602 9.5195 13.441 15.121 17.922-0.55859-1.1211-1.1211-2.8008-1.1211-3.9219 1.1211 1.6797 2.2383 3.3594 3.3594 3.9219 1.1211 0.55859-0.55859-1.6797-2.2383-4.4805l10.641 8.9609-3.9219-3.9219 11.199 1.1211c-6.7188-13.441-17.922-31.359-16.801-41.441 6.1602 8.3984 11.762 12.32 20.16 20.719-10.641-7.2812-0.55859 8.3984-5.6016 9.5195 2.2383-0.55859 6.1602 3.9219 7.2812 5.6016l-3.3594-13.441c6.7188 7.2812 6.1602 3.9219 10.641 5.6016-15.121-12.879-5.6016-13.441-7.8398-19.602 5.0391 4.4805 8.9609 10.078 5.6016 11.199 13.441 7.2812-12.879-20.16-1.1211-14-0.55859 0.55859-1.6797 0.55859 0.55859 2.8008-2.8008-5.6016 4.4805-6.1602 7.2812-1.1211l-0.55859 0.55859c6.1602-2.8008 12.879-12.879 1.6797-25.199 1.6797 1.6797 14 14.559 15.68 17.359l-32.48-47.039c9.5195 10.641 36.398 32.48 38.641 41.441 2.2383 0.55859 5.6016 1.1211 3.9219-5.0391-2.2383-0.55859-16.238-12.879-16.238-14.559 14 8.3984 7.8398 4.4805 20.719 10.641-3.3594-1.1211-17.922-17.922-16.238-19.039 2.2383 2.8008 16.238 15.68 16.801 17.922l-8.4102-19.051c1.6797 3.9219 13.441 13.441 18.48 16.801-3.3594-2.8008 3.9219-3.3594 3.3594-6.1602l-5.6016-1.6797c6.7188-2.2383-17.359-26.32-12.32-30.238 2.8008 3.9219 18.48 21.281 22.961 20.719-7.2812-8.9609-34.16-43.121-36.398-53.199l5.6016 3.9219-2.2383-8.3984c10.078 14 30.238 44.801 37.52 57.68 5.6016 1.6797 6.1602 5.0391 7.8398 1.6797 5.0391 3.3594 5.0391 7.8398 4.4805 8.9609l8.9609-3.3594c-9.5195-8.9609-5.0391-14-12.879-21.281l3.3594 16.238c-9.5195-8.9609-22.961-30.238-17.359-33.039 5.0391 2.8008 15.68 17.359 19.039 20.16-2.8008-3.9219-2.2383-10.078 0.55859-8.3984l3.3594 6.7188c6.1602 1.1211-8.3984-16.238 3.3594-10.078 1.6797-0.55859 15.121 8.9609 9.5195 3.3594-12.32-8.9609-45.922-41.441-52.641-50.398 1.1211 0.55859 15.68 5.0391 21.84 8.9609 10.078 6.7188 17.922 22.398 26.32 28-2.2383-2.8008-5.0391-6.7188-5.6016-7.8398 3.3594 1.1211 7.2812 8.3984 8.3984 5.0391-8.9609-10.078 5.6016-3.9219-7.2812-8.9609-0.55859-5.0391 4.4805-0.55859 6.1602-3.3594-6.7188-5.0391-18.48-22.961-19.039-28 2.2383 2.8008 6.1602 5.0391 7.8398 6.1602 5.6016-3.9219 12.32-1.6797 16.238-6.1602 2.8008 1.6797 7.2812 2.8008 10.641 7.8398-1.1211-2.2383-3.9219-6.1602-2.8008-7.8398 10.641 5.6016-1.6797 3.9219 10.078 12.32-5.6016-5.6016-4.4805-11.199-6.1602-16.238-8.9609-7.8398-5.6016 2.8008-4.4805 7.8398-11.762-11.762-21.281-26.879-21.84-36.961 0.55859-6.1602 8.9609 6.1602 7.8398 3.9219 8.3984-4.4805-15.121-25.762-1.1211-22.961 9.5195 5.0391 15.121 14.559 20.719 19.602 0 5.6016-8.9609-0.55859-10.641 1.6797l6.1602 1.1211c1.6797 3.3594 1.6797 7.2812-1.6797 6.1602 8.3984 5.0391 12.32-10.078 23.52-8.9609-1.6797-3.3594-2.8008-7.2812-6.7188-9.5195l-0.55859 2.8008c-7.2812-4.4805-5.6016-11.199-10.078-12.32-2.2383-6.1602-6.7188-15.68 0-15.121l8.9609 7.8398c-2.8008-2.2383-7.2812-2.8008-5.0391 0.55859-2.8008-5.0391 16.238 6.7188 6.1602-5.6016l-7.8398-3.9219c-2.2383-6.1602-8.3984-17.922-3.3594-17.922-9.5195-7.2812 0.55859 1.6797-11.199-6.1602 14 10.641-7.2812 6.1602 8.3984 16.801-13.441-9.5195-8.3984-1.6797-20.719-8.3984 2.8008 2.8008 6.1602 4.4805 2.8008 5.6016 0.55859 1.1211 1.6797 2.2383 2.2383 2.8008h-0.55859 0.55859c0.55859 0.55859 0.55859 0.55859 0 0 1.6797 0.55859 3.9219 1.6797 5.6016 3.3594 5.6016 7.2812 1.6797 11.199 3.9219 15.68-2.8008 0-2.8008-3.9219-6.1602-6.1602l3.3594 6.7188c-6.7188-6.1602-14-6.7188-14.559-13.441l-3.3594 2.8008c-5.0391-1.6797-8.9609-1.1211-7.8398 3.3594-2.8008 0 3.3594 10.078 0 4.4805l-0.55859 8.3984-1.6797-1.6797c-5.0391 3.3594 1.6797 19.602-15.121 12.879 0 2.8008 0.55859 6.7188-3.9219 7.2812l-6.1602-5.0391c0 3.9219-11.199 0.55859-6.1602 6.7188-16.801-12.32-12.32 6.1602-18.48 6.7188l6.7188 7.2812c-2.8008 1.6797-2.8008 6.1602-2.8008 11.762l6.7188 6.1602c2.8008 7.8398-10.641 1.6797-14 6.1602-2.2383-2.8008-0.55859-2.8008 1.6797-2.2383-19.039-9.5195 0.55859 20.16-14 14 1.1211 3.3594-0.55859 3.3594-2.8008 2.2383v-0.55859s-0.55859 0-0.55859 0.55859c-1.6797-0.55859-3.3594-1.1211-5.0391-1.6797 2.2383 1.1211 3.3594 1.6797 4.4805 2.2383-0.55859 1.1211-1.1211 2.8008-0.55859 5.6016l-5.0391-7.8438v0.55859c-3.9219-1.1211 2.2383 3.9219 7.8398 8.3984 0.55859 1.6797 1.1211 3.3594 2.2383 5.6016-11.762-10.078 0.55859 6.7188-12.32-3.3594 5.0391 6.1602-1.6797 10.078 9.5195 22.961-1.6797-1.6797-2.8008-1.6797-2.2383-2.8008-2.8008 0-5.6016 0-3.3594 4.4805l-8.9609-7.8398 8.3984 14.559c-6.7188-3.3594-10.641-5.6016-15.68-14 6.1602 14.559 0.55859 7.2812 6.7188 20.719l-5.6016-5.6016c-1.1211 1.6797 4.4805 11.199-1.1211 7.2812-13.441-7.2812-15.68 12.879-33.039 10.641 17.922 14.559-10.641-3.9219 1.6797 8.9609-4.4805-3.3594-7.2812-4.4805-9.5195-8.9609 0 7.2812-11.762-0.55859-3.9219 12.879-4.4805-3.3594-5.0391-6.1602-7.2812-8.3984 0.55859 1.1211 2.2383 4.4805-0.55859 2.8008-2.8008-1.6797-2.8008-3.9219-3.9219-6.1602-3.3594 4.4805 8.3984 16.801 19.039 28-7.2812-3.3594-7.2812-1.6797-1.6797 7.2812-4.4805-2.8008-9.5195-5.6016-8.3984-9.5195-1.6797 0.55859-13.441 2.8008-4.4805 11.762-2.8008-1.6797-2.8008 1.1211-1.6797 2.8008-3.3594 2.8008-4.4805 2.2383-6.7188 5.6016l2.2383 0.55859c9.5195 11.762 0 5.0391-1.1211 8.3984l-1.1211-1.1211c-13.441-2.2383 1.1211 6.1602-12.879 2.8008l7.2812 6.1602c14 14.559-13.441-3.3594-10.641 5.0391l5.0391 2.8008c3.3594 6.7188-24.641-14.559-28-14.559-1.6797-1.1211-1.6797-2.8008-1.6797-3.9219-12.879-3.9219 8.3984 9.5195 6.7188 14.559-5.6016-3.9219-11.199-12.879-14.559-11.199-5.0391-2.8008 8.9609 21.84-3.3594 16.238 4.4805 2.8008 8.3984 5.6016 10.078 10.078-1.1211 3.9219-20.16-7.2812-10.641 6.1602-1.1211-0.55859-2.2383-1.6797-3.3594-2.2383 1.1211 5.0391-1.1211 10.641 3.9219 17.922-24.641-21.281-0.55859 22.961-20.16 0.55859l-1.6797 3.9219-1.6719-2.2422c-2.8008 0 0.55859 6.7188 3.3594 14-1.6797-1.1211-2.8008-3.9219-3.3594-5.6016-6.1602-2.2383-5.0391-1.6797-1.6797 16.238l-3.9219-9.5195c0.55859 3.3594-1.6797 0.55859-3.9219-1.6797-2.2383-2.2383-3.9219-3.9219-3.9219 4.4805 0-1.1211-0.55859-3.9219-0.55859-5.6016 0 5.6016-1.6797 4.4805-3.3594 1.6797-1.6797-2.8008-2.8008-6.7188-3.3594-5.0391-0.55859 0.55859-0.55859 5.6016-1.1211 19.039 0 0-0.55859 2.2383-1.1211 4.4805-0.55859 2.2383-1.6797 4.4805-1.6797 4.4805 3.9219 6.7188-1.1211 19.039 0.55859 28.559-2.2383 0.55859-4.4805-17.922-2.2383-17.922v2.8008c1.6797-22.961-4.4805-12.32-2.8008-27.441-3.3594-2.2383-5.6016-7.2812-7.2812-12.32-1.6797-5.0391-2.8008-9.5195-5.0391-11.762l-7.2812 12.879-1.6797-2.8008c1.1211-3.3594 6.1602-9.5195 6.7188-8.3984 3.9219-7.2812-6.1602 3.9219-8.3984 6.1602 1.1211-6.7188 11.199-12.32 10.641-13.441h-1.6797l-1.1211 1.6797c-4.4805 3.9219-8.9609 8.3984-11.199 5.6016 0-3.9219 5.0391-7.8398 4.4805-8.3984 0.55859-0.55859 0.55859-1.1211-1.1211-1.1211l-3.3594-4.4805-5.6016 10.078c-5.6016 2.8008-3.9219-3.9219-10.078 7.8398 10.078-17.922-11.762-19.039-9.5195-25.199-7.8398 3.9219-10.641 1.6797-13.441-1.6797-0.55859 2.2383-8.3984 12.879-10.078 8.9609 17.922-19.039 2.2383-12.879 12.32-29.68-6.1602 11.199-10.078-4.4805-18.48 11.762-1.1211-3.3594 6.1602-7.8398 8.3984-14-12.32 2.8008-8.3984-15.68-17.359-19.039-2.2383 2.8008-4.4805 7.8398-9.5195 10.078l7.2812-16.238c-2.2383 0-14 14-8.9609 2.8008-1.6797 2.8008-3.9219 6.1602-5.6016 6.1602-2.8008-24.641-36.961-12.879-30.238-48.719-2.2383 6.7188-3.9219 6.1602-5.6016 5.0391 0 2.2383-5.6016 6.7188-8.3984 10.078l2.8008-15.121c-9.5195 8.9609-6.7188-4.4805-15.68 4.4805h3.3594c-11.762 8.9609-17.359 28-30.238 42 13.441-10.641-8.9609 25.199 11.199 10.641-0.55859 3.9297-3.3594 4.4883-6.1562 7.8477zm453.04-205.52v0c-3.9219-0.55859-2.2422 0 0 0zm-105.28 200.48c1.6797 2.8008 0 2.2383-3.9219 0.55859 0.5625-1.1211 1.6836-1.6797 3.9219-0.55859zm-38.078 71.121c0.55859 2.2383 3.9219 7.8398-0.55859 4.4805-7.2812-8.4023-2.8047-5.043 0.55859-4.4805zm-147.28-26.32-1.1211 2.2383c-3.3594 1.1211-1.1211-0.55859 1.1211-2.2383z"/>
  <path d="m352.24 281.68c-1.1211-1.1211-2.8008-2.2383-3.9219-3.3594 0.5625 1.6797 1.6836 2.8008 3.9219 3.3594z"/>
  <path d="m347.76 278.88c1.6797 1.6797 3.3594 2.8008 5.0391 2.2383-2.2422-0.55859-3.9219-1.1172-5.0391-2.2383z"/>
  <path d="m348.32 277.76-0.55859 3.9219c0.55859-1.1211 2.2383 0 3.9219 0.55859-1.125-1.6836-3.9219-3.3633-3.3633-4.4805z"/>
  <path d="m351.68 282.24c-0.55859-1.1211 0.55859-0.55859 0-1.6797l-3.3594-2.8008c-1.1211 1.1211 0.55859 4.4805 3.3594 4.4805z"/>
  <path d="m347.76 281.12c5.6016 5.6016 5.0391 2.2383 5.6016 0-7.8438-8.4023-6.7227-4.4805-5.6016 0z"/>
  <path d="m351.12 280c-2.8008-3.3594-1.1211 0-1.1211 1.6797 0-1.1211 0-1.6797 1.1211-1.6797z"/>
  <path d="m352.8 282.8c2.2383 0.55859-6.7188-7.8398-3.9219-5.6016-6.7188-7.8398 3.9219 13.441 3.9219 5.6016z"/>
  <path d="m346.08 276.64 5.043 6.7188h2.8008z"/>
  <path d="m348.32 281.68 4.4805-0.55859c-1.1211-1.1211-1.6797-2.2383-1.6797-2.8008-2.2422 1.1211-5.043 1.1211-2.8008 3.3594z"/>
  <path d="m350 278.32c-0.55859 0.55859-1.1211 1.6797-0.55859 2.8008 1.1172 0 1.6797-1.1211 0.55859-2.8008z"/>
  <path d="m347.76 280.56 4.4766-0.55859-2.2383-0.55859z"/>
  <path d="m347.76 281.12c2.2383 2.8008 4.4805 3.3594 4.4805 1.6797-1.1211-2.2383-1.1211-3.9219-3.9219-6.1602z"/>
  <path d="m352.24 280c-2.2383-0.55859-3.9219-2.2383-6.7188-3.9219l8.3984 8.9609z"/>
  <path d="m352.8 282.8c-2.2383-2.8008-1.6797-7.2812-6.1602-6.7188 2.8008 2.7969 3.918 10.637 6.1602 6.7188z"/>
  <path d="m356.72 287.28 0.5625-0.5625-14.562-14z"/>
  <path d="m352.8 278.32c-2.8008-3.9219-5.6016-1.1211-7.8398-5.0391 1.6797 5.6016-1.1211 4.4805 8.9609 12.879 6.1562 0.55859-8.4023-8.9609-1.1211-7.8398z"/>
  <path d="m348.32 283.36 2.8008-1.6797 0.55859-5.0391z"/>
  <path d="m354.48 274.96-8.9609 7.8398c0.55859 0 2.2383 0 1.1211 2.2383z"/>
  <path d="m346.64 278.32 6.7188 3.3594-2.2383-2.2383c-2.8008-1.6797-3.3594-1.6797-4.4805-1.1211z"/>
  <path d="m353.92 283.92 0.55859-0.5625-8.9609-7.2812z"/>
 </g>
</svg>
