<svg width="29" height="33" viewBox="0 0 29 33" fill="none" xmlns="http://www.w3.org/2000/svg">
<path d="M1 11.2222C1 10.6699 1.44772 10.2222 2 10.2222H26.5C27.0523 10.2222 27.5 10.6699 27.5 11.2222V27.2222C27.5 29.4314 25.7091 31.2222 23.5 31.2222H5C2.79086 31.2222 1 29.4314 1 27.2222V11.2222Z" stroke-width="2"/>
<path d="M9.49996 3.72223C7.49997 8.22224 8.0523 7.72224 7.50001 7.72224C6.94773 7.72224 5.5 7.22223 7.5 3.22223C8.17082 1.88059 11.4477 0.222235 12 0.222235C12.1746 0.222235 14.5 -0.277784 16.5 0.222221C17.0892 0.369523 18 0.722214 19 1.72221C15.5 1.72221 14.8867 1.72223 13.5 1.72223C12 1.72223 9.78457 3.08186 9.49996 3.72223Z"/>
<path d="M17.2207 2.50304C12.5903 0.82687 12 2.22221 10.5 1.22221C9 1.22222 13.0279 0.722252 17.5 0.722223C19 0.722214 20.8499 4.19794 20.889 4.74884C20.9013 4.92302 21.5649 7.20714 21.2078 9.23753C21.1026 9.83569 20.8153 10.7692 19.8887 11.8375C19.6407 8.34631 19.5973 7.73458 19.499 6.35134C19.3928 4.85511 17.8796 2.74157 17.2207 2.50304Z"/>
<path d="M6.51001 5.72222L8.5 5.72221L8.50883 13.2216C8.50948 13.7741 8.06184 14.2222 7.50942 14.2222C6.95746 14.2222 6.51001 13.7748 6.51001 13.2228V5.72222Z"/>
<path d="M19.5 5.72222L21.49 5.72221L21.4988 13.2216C21.4995 13.7741 21.0518 14.2222 20.4994 14.2222C19.9475 14.2222 19.5 13.7748 19.5 13.2228V5.72222Z"/>
</svg>
